<?xml version="1.0" encoding="UTF-8" standalone="no"?>
<!-- Created with Inkscape (http://www.inkscape.org/) -->

<svg
   width="512"
   height="340"
   viewBox="0 0 135.46666 89.958336"
   version="1.1"
   id="svg5"
   inkscape:version="1.1.2 (0a00cf5339, 2022-02-04)"
   sodipodi:docname="ic.svg"
   xmlns:inkscape="http://www.inkscape.org/namespaces/inkscape"
   xmlns:sodipodi="http://sodipodi.sourceforge.net/DTD/sodipodi-0.dtd"
   xmlns="http://www.w3.org/2000/svg"
   xmlns:svg="http://www.w3.org/2000/svg">
  <sodipodi:namedview
     id="namedview7"
     pagecolor="#505050"
     bordercolor="#eeeeee"
     borderopacity="1"
     inkscape:pageshadow="0"
     inkscape:pageopacity="0"
     inkscape:pagecheckerboard="0"
     inkscape:document-units="mm"
     showgrid="false"
     units="px"
     height="512px"
     inkscape:zoom="2.1601562"
     inkscape:cx="256"
     inkscape:cy="267.8047"
     inkscape:window-width="1920"
     inkscape:window-height="1000"
     inkscape:window-x="0"
     inkscape:window-y="48"
     inkscape:window-maximized="1"
     inkscape:current-layer="layer1" />
  <defs
     id="defs2">
    <rect
       x="0.17109559"
       y="109.45952"
       width="51.517338"
       height="51.92252"
       id="rect2862" />
  </defs>
  <g
     inkscape:label="Layer 1"
     inkscape:groupmode="layer"
     id="layer1">
    <path
       id="rect1347"
       style="fill:#953bde;fill-opacity:1;stroke:none;stroke-width:5.82083;stroke-linecap:round;stroke-linejoin:round;stroke-miterlimit:4;stroke-dasharray:none;stroke-opacity:1;paint-order:markers fill stroke"
       d="m 85.540513,15.457443 c -4.079777,0.047 -7.919662,1.515877 -10.942484,4.013708 0.407844,1.147423 0.729771,2.342753 0.944128,3.58531 l 5.391402,31.252355 c 1.354058,7.849037 -1.710167,15.398401 -7.402648,20.132622 1.270106,0.583875 2.630205,1.027869 4.067453,1.30328 l 25.495076,4.885474 c 9.54918,1.829831 18.71,-4.384327 20.53984,-13.933502 l 4.88548,-25.495602 C 130.3486,31.651914 124.13391,22.491097 114.58473,20.661257 L 89.089652,15.775768 c -1.193647,-0.22873 -2.381189,-0.331782 -3.549139,-0.318325 z m 11.00243,17.525544 c 0.863473,-0.01324 1.76493,0.08237 2.703711,0.287319 1.745166,0.381006 3.214446,1.042271 4.408516,1.983859 1.19669,0.929556 2.03521,2.026854 2.51561,3.29179 0.49243,1.267563 0.59694,2.551594 0.31315,3.851444 -0.22334,1.02303 -0.62963,1.873467 -1.21904,2.551782 -0.57738,0.680942 -1.21702,1.241483 -1.91823,1.681033 -0.68655,0.430144 -1.91407,1.1454 -3.683497,2.146123 -0.490666,0.283765 -0.893931,0.542504 -1.209743,0.776181 -0.301149,0.224266 -0.538157,0.443402 -0.711068,0.657839 -0.17028,0.202401 -0.3181,0.416359 -0.442867,0.641305 -0.110101,0.21554 -0.29541,0.603427 -0.556554,1.16427 -0.501949,1.201782 -1.354936,1.671463 -2.5585,1.4087 -0.625853,-0.136636 -1.110747,-0.456859 -1.454692,-0.960665 -0.331909,-0.501177 -0.409628,-1.154732 -0.233577,-1.961121 0.220718,-1.010994 0.567553,-1.849752 1.040763,-2.515608 0.475839,-0.677892 1.032814,-1.236766 1.671216,-1.677416 0.64103,-0.452689 1.484858,-0.968727 2.531629,-1.547193 0.917427,-0.505828 1.581555,-0.889992 1.992123,-1.153417 0.425237,-0.272833 0.798147,-0.595027 1.118797,-0.966351 0.33268,-0.368694 0.55269,-0.799999 0.66042,-1.29346 0.21021,-0.962851 0.0268,-1.854121 -0.55087,-2.673739 -0.56558,-0.816989 -1.414227,-1.348772 -2.545576,-1.595769 -1.323922,-0.289036 -2.372029,-0.164771 -3.145028,0.372587 -0.770372,0.525325 -1.514324,1.390454 -2.23139,2.595708 -0.706131,1.270688 -1.630603,1.781312 -2.77399,1.531688 -0.673997,-0.147145 -1.19475,-0.506618 -1.56166,-1.078486 -0.352251,-0.581274 -0.46762,-1.149099 -0.34675,-1.702739 0.249624,-1.143384 0.868714,-2.218468 1.857766,-3.225642 0.991683,-1.019209 2.275626,-1.76027 3.851963,-2.223119 0.788168,-0.231425 1.613892,-0.353668 2.477368,-0.366903 z m -3.084565,22.054984 c 0.184586,0.0064 0.373284,0.03082 0.565856,0.07286 0.758246,0.165539 1.339533,0.563721 1.744078,1.194242 0.404545,0.63052 0.524174,1.324832 0.358635,2.083077 -0.183933,0.842494 -0.59921,1.44549 -1.245918,1.808673 -0.646708,0.363186 -1.324914,0.467157 -2.035019,0.312127 -0.734174,-0.160285 -1.327023,-0.535768 -1.778185,-1.12603 -0.436499,-0.599667 -0.561216,-1.326732 -0.374655,-2.181262 0.165542,-0.758245 0.569256,-1.338027 1.211813,-1.739945 0.481917,-0.301437 0.999632,-0.442981 1.553395,-0.423746 z" />
    <path
       id="rect846"
       style="fill:#953bde;fill-opacity:1;stroke:none;stroke-width:5.43459;stroke-linecap:round;stroke-linejoin:round;stroke-miterlimit:4;stroke-dasharray:none;stroke-opacity:1;paint-order:markers fill stroke"
       d="m 52.32497,10.678922 c -0.931881,0.01867 -1.874247,0.107275 -2.822048,0.270785 L 22.510253,15.606271 C 12.400358,17.350354 5.6652828,26.893517 7.4093667,37.003413 L 12.06593,63.99608 c 1.744084,10.109896 11.287248,16.844442 21.397143,15.100371 L 60.45574,74.439888 C 70.565636,72.695802 77.300194,63.153155 75.556111,53.043261 L 70.899548,26.050592 C 69.318972,16.8885 61.333146,10.49846 52.32497,10.678922 Z M 41.961262,36.351255 a 7.695073,7.695073 0 0 1 7.695136,7.695139 7.695073,7.695073 0 0 1 -7.695136,7.69462 7.695073,7.695073 0 0 1 -7.695136,-7.69462 7.695073,7.695073 0 0 1 7.695136,-7.695139 z" />
  </g>
</svg>
